# xmcd
# 
# Track frame offsets:
#     150
#     31325
#     53372
#     77635
#     111755
#     132592
#     156925
#     191790
#     222567
# 
# Disc length: 3073
# 
# Revision: 0
# Processed by: cddbd v1.5.2PL0 Copyright (c) Steve Scherf et al.
# Submitted via: fre:ac v1.0.17
# 
DISCID=7b0bff09
DTITLE=Pinetop Perkins - Born in the Delta
DYEAR=0
DGENRE=Blues
TTITLE0=Everyday I Have The Blues
TTITLE1=For You My Love
TTITLE2=Look on Yonder Wall
TTITLE3=Blues After Hours
TTITLE4=Murmur Low
TTITLE5=How Long, How Long Blues
TTITLE6=Baby, What You Want Me To Do?
TTITLE7=Blues oh Blues
TTITLE8=Data track
EXTD=
EXTT0=
EXTT1=
EXTT2=
EXTT3=
EXTT4=
EXTT5=
EXTT6=
EXTT7=
EXTT8=
PLAYORDER=
